<svg width="43" height="49" viewBox="0 0 43 49" fill="none" xmlns="http://www.w3.org/2000/svg">
<path d="M9.60509 0.211533C8.55197 0.651932 7.92009 1.21679 7.49884 2.09759L7.28822 2.53798L6.36912 2.57628C5.57449 2.61457 5.37344 2.66245 4.80858 2.94009C3.9948 3.34219 3.32463 4.01236 2.91296 4.83572C2.61617 5.44844 2.59702 5.53461 2.59702 6.53986C2.59702 7.53555 2.61617 7.63129 2.90338 8.21529C3.07571 8.55995 3.26719 8.90461 3.33421 9.00035C3.42994 9.12481 3.40122 9.22055 3.1906 9.53649C2.46298 10.6471 2.33852 12.2076 2.90338 13.4043C3.07571 13.7586 3.4108 14.266 3.65972 14.534C4.40648 15.3383 5.73725 15.8552 6.7808 15.7595L7.24035 15.7116L7.54671 16.2765C7.70947 16.5829 8.07327 17.052 8.36049 17.3105C8.85833 17.77 8.8679 17.7796 8.8679 18.3157V18.8614L8.4658 18.5072C7.97753 18.0572 6.89569 17.5498 6.14892 17.4158C5.83299 17.3583 5.16282 17.3105 4.6554 17.3105C3.5544 17.3105 3.02784 17.5211 2.73105 18.0764C2.50128 18.5072 2.48213 20.3071 2.69276 21.2262C3.08528 22.8729 4.32031 24.242 5.95745 24.8451C6.47444 25.0366 6.86697 25.094 7.74776 25.1419L8.8679 25.1898V25.7451V26.3099H8.05413C7.29779 26.3099 7.21162 26.3291 6.98185 26.5588C6.7808 26.7599 6.75208 26.8652 6.79995 27.1524C6.91483 27.88 6.54145 27.8417 13.2815 27.8417H19.3034L19.6098 28.1098C19.9832 28.4545 19.9832 28.3683 19.5428 31.4894C19.3609 32.8106 19.2077 33.9307 19.2077 33.969C19.2077 34.0073 18.6333 34.0648 17.9439 34.0839C16.7951 34.1126 16.6323 34.1413 16.2398 34.352C15.4069 34.8211 14.9186 35.7593 15.0239 36.6976C15.0526 36.9561 15.6462 39.0815 16.326 41.4175C17.5418 45.5343 17.5706 45.6683 17.4748 46.1278C17.3599 46.664 17.044 47.1044 16.5844 47.3533C16.3164 47.4969 15.7994 47.516 10.6869 47.516H5.08622L4.73199 47.2959C4.01395 46.8459 4.09054 47.2384 2.74063 37.5975C2.05131 32.734 1.49602 28.6747 1.49602 28.5789C1.49602 28.4832 1.62048 28.2726 1.77366 28.1194C2.05131 27.8417 2.06088 27.8417 3.26719 27.8417C4.41605 27.8417 4.48307 27.8322 4.70327 27.6024C5.01921 27.296 5.01921 26.8556 4.70327 26.5397C4.45435 26.2908 4.44478 26.2908 3.04699 26.3291C1.9077 26.3578 1.57261 26.3961 1.30454 26.5397C0.557782 26.9322 0.0886624 27.6024 0.00249753 28.397C-0.035798 28.6938 0.366305 31.8245 1.20881 37.7986C2.55872 47.3916 2.53957 47.3054 3.20017 48.0522C3.36293 48.2341 3.72673 48.5117 4.00438 48.6745L4.51179 48.9521L10.5338 48.9809C17.3408 49.0096 17.111 49.0287 17.9439 48.282L18.4131 47.8607L18.6907 48.1479C18.8439 48.3107 19.2268 48.5596 19.5428 48.7224L20.1172 49L28.8294 48.9809L37.5417 48.9521L38.0491 48.6745C38.6139 48.3586 39.0256 47.9373 39.3032 47.3916C39.5522 46.9129 42.3956 37.1954 42.4531 36.6497C42.5392 35.7498 42.0414 34.8115 41.2276 34.352L40.7968 34.1126L37.2832 34.0839L33.76 34.0552L34.344 32.8872C35.962 29.6703 37.1587 25.4866 37.4459 22.0304C37.5129 21.2741 37.5129 21.2453 37.2736 21.006C36.9577 20.6901 36.5173 20.6805 36.2109 20.9773C36.0386 21.1496 35.9715 21.3506 35.9237 21.8676C35.5599 25.4674 34.4301 29.3448 32.8409 32.4372C32.075 33.9307 31.9792 34.0648 31.692 34.0648C31.5101 34.0648 31.4622 34.0265 31.5005 33.8924C31.9026 32.5904 32.3143 29.8044 32.4005 27.7843C32.4771 26.128 32.4005 23.4473 32.2377 22.3368C32.142 21.6857 32.1516 21.657 32.4867 20.9007C33.1568 19.4072 34.2578 17.5594 35.2822 16.2095L35.713 15.6446L35.7801 15.9701C35.8184 16.152 35.895 16.7935 35.9524 17.3966C36.0386 18.3062 36.0864 18.5264 36.2683 18.7178C36.6321 19.1104 37.3023 18.9763 37.4746 18.4785C37.647 17.9711 37.3023 15.1276 37.0055 14.6394C36.6226 14.0075 35.7705 13.7777 35.1195 14.1224C34.6025 14.4096 33.1377 16.3818 32.0941 18.22C31.8356 18.6891 31.6442 18.9285 31.6154 18.8423C31.5867 18.7657 31.4335 18.2391 31.2708 17.6743C30.7346 15.8361 30.0932 14.333 29.6719 13.9309C29.1645 13.4522 28.2646 13.4618 27.7667 13.95C27.4508 14.2564 26.9338 15.4148 26.3977 17.0137L26.0339 18.1051L25.7658 17.636C24.8946 16.1329 23.6117 14.4575 23.1043 14.1415C22.5011 13.7777 21.582 13.9883 21.2182 14.5819C20.864 15.1564 20.7012 16.6307 20.7012 19.321C20.6916 21.9442 20.8065 23.1027 21.2852 25.3908C21.8501 28.1194 22.8936 31.1064 24.0616 33.3276L24.4446 34.0648H22.5968C21.5724 34.0648 20.7395 34.0552 20.7395 34.036C20.7395 34.0265 20.9118 32.8297 21.1129 31.3841C21.5246 28.4928 21.5246 28.1672 21.0842 27.4205C20.6533 26.6929 19.897 26.3099 18.8535 26.3099H18.2312L18.5758 25.8504C19.4087 24.7111 19.7247 23.5622 19.6672 21.9155C19.6385 20.8911 19.5428 20.6518 18.9779 20.2401C18.7577 20.0677 18.5471 20.0295 17.6471 20.0103C15.9909 19.9624 14.9473 20.2688 13.7793 21.1496L13.2719 21.5326V19.6561V17.7892L13.8272 17.2339C14.1431 16.9371 14.4878 16.4775 14.6122 16.2095L14.8324 15.7308L15.6558 15.7212C17.8961 15.6925 19.5236 14.0266 19.5332 11.7576C19.5332 10.8481 19.3704 10.2258 18.93 9.57478L18.6524 9.15353L18.9779 8.61739C19.5045 7.74617 19.6864 6.82708 19.5045 5.87927C19.1311 3.87833 17.5514 2.56671 15.5313 2.56671H14.8516L14.5835 2.04972C14.2293 1.37955 13.4251 0.613636 12.7262 0.288124C12.2571 0.0774994 12.0177 0.0296288 11.1656 0.0104828C10.2753 -0.0182419 10.0934 0.000907898 9.60509 0.211533ZM11.9603 1.65719C12.7166 1.97313 13.291 2.67202 13.4634 3.49537C13.607 4.16554 13.808 4.3283 14.392 4.25171C15.8473 4.06981 16.0004 4.06981 16.5174 4.29C17.3504 4.65381 18.0588 5.67822 18.0588 6.53986C18.0588 7.08558 17.7429 7.76532 17.2355 8.32061C16.5653 9.04822 16.5462 9.30671 17.1397 9.87157C18.1163 10.829 18.2886 11.93 17.6376 13.031C17.4269 13.3852 17.1876 13.615 16.8238 13.8352C16.1345 14.2468 15.6366 14.3139 14.8037 14.0937C13.8942 13.8639 13.7219 13.9596 13.4634 14.8308C13.0708 16.1329 12.2571 16.7839 11.022 16.7839C9.7487 16.7743 8.9445 16.0659 8.58069 14.6489C8.45623 14.1702 8.13072 13.9117 7.74776 13.9883C7.59458 14.0266 7.24035 14.0937 6.95313 14.1607C5.51705 14.4575 4.08097 13.2607 4.08097 11.7576C4.08097 11.1066 4.39691 10.4077 4.89475 9.93859C5.54577 9.32586 5.52662 8.9812 4.80858 8.25359C3.20017 6.64518 4.50222 3.8879 6.7425 4.13682C7.04887 4.16554 7.47969 4.22299 7.71904 4.25171C8.2839 4.31873 8.44665 4.18469 8.62856 3.49537C8.85833 2.59543 9.42319 1.93483 10.2082 1.61889C10.5721 1.47528 11.5773 1.49443 11.9603 1.65719ZM29.5188 17.2626C30.4666 20.0582 30.8974 22.8346 30.8974 26.1663C30.8974 28.78 30.6197 31.1543 30.0453 33.3467L29.873 34.0169H28.7337H27.5944L27.5178 33.7297C27.288 32.935 26.8572 30.6277 26.7232 29.4693C26.5413 27.9375 26.5126 24.7015 26.6753 23.2463C26.953 20.5847 27.604 17.9232 28.4656 15.884L28.7241 15.2712L28.9539 15.7882C29.0879 16.0754 29.3368 16.736 29.5188 17.2626ZM23.2383 16.6403C23.8797 17.5115 24.7127 18.8614 25.1722 19.7614L25.5073 20.4316L25.3254 21.6666C24.8467 24.8738 24.952 29.1438 25.5839 32.2361C25.6605 32.6191 25.7084 32.9542 25.6892 32.9829C25.6222 33.0403 24.751 31.2117 24.301 30.0916C23.4393 27.9088 22.8075 25.5727 22.4532 23.1984C22.2043 21.5517 22.1181 18.7466 22.2618 17.2626C22.4149 15.7978 22.4532 15.6063 22.5968 15.7882C22.6543 15.8648 22.9415 16.2478 23.2383 16.6403ZM11.7401 22.2889V26.3099H11.0699H10.3997V22.3368V18.3732L11.0507 18.3349C11.405 18.3157 11.7018 18.2966 11.7209 18.287C11.7305 18.2774 11.7401 20.0773 11.7401 22.2889ZM6.52231 19.1295C6.95313 19.2923 7.25949 19.5125 7.72861 19.9816C8.53282 20.7858 8.77217 21.3698 8.83918 22.691L8.89663 23.6292H8.08285C6.62762 23.6292 5.51705 23.1027 4.77986 22.0783C4.27245 21.3794 4.08097 20.7092 4.08097 19.6944V18.8136L5.01921 18.8614C5.66066 18.8997 6.12978 18.9859 6.52231 19.1295ZM18.1354 22.5091C18.0971 23.3612 18.0492 23.5909 17.7908 24.1366C17.4174 24.9409 16.7855 25.5727 15.9813 25.9461C15.4356 26.2046 15.2058 26.2525 14.3442 26.2908L13.3389 26.3386L13.3868 25.3334C13.4251 24.4717 13.4729 24.242 13.7314 23.6962C14.0761 22.9495 14.6888 22.2985 15.3686 21.9538C16.0196 21.6283 16.4217 21.5421 17.3791 21.5326L18.1833 21.523L18.1354 22.5091ZM40.634 35.8263C40.9212 36.0848 40.9691 36.4678 40.7968 37.071L40.6436 37.6071H28.7337H16.8238L16.6706 37.071C16.4504 36.3146 16.594 35.8551 17.1014 35.6636C17.178 35.6349 22.4628 35.6157 28.839 35.6253C39.9926 35.6444 40.4521 35.654 40.634 35.8263ZM40.117 39.3783C40.0883 39.5123 39.983 39.8665 39.8873 40.1729L39.7149 40.7186L31.692 40.7665C27.2689 40.7952 23.5925 40.8526 23.5064 40.8909C23.3245 40.9771 23.133 41.36 23.133 41.6377C23.133 41.743 23.2383 41.9345 23.3723 42.0589L23.6021 42.2983H31.4144C35.7035 42.2983 39.2171 42.327 39.2171 42.3653C39.2171 42.5376 38.0299 46.4916 37.9055 46.731C37.8384 46.8746 37.5991 47.1044 37.3789 47.2576L36.9768 47.516H28.7337H20.4906L20.0885 47.2576C19.8683 47.1044 19.6289 46.8746 19.5619 46.731C19.4375 46.4916 18.2503 42.5376 18.2503 42.3653C18.2503 42.327 18.8439 42.2983 19.5619 42.2983C20.7778 42.2983 20.8831 42.2791 21.0937 42.0877C21.3714 41.8292 21.381 41.3505 21.132 41.0441C20.9597 40.8239 20.8831 40.8143 19.3513 40.7665L17.7525 40.7186L17.5801 40.1729C17.4844 39.8665 17.3791 39.5123 17.3504 39.3783L17.2929 39.1389H28.7337H40.1745L40.117 39.3783Z" fill="white"/>
<path d="M10.3898 5.06542C8.66648 5.31434 7.20168 6.77915 6.96233 8.51202C6.67512 10.5991 7.8527 12.4947 9.81535 13.0979C11.2897 13.5574 12.8981 13.1649 13.98 12.0831C14.8416 11.2214 15.2533 10.1013 15.1576 8.8471C14.9948 6.40577 12.8407 4.71119 10.3898 5.06542ZM12.1897 6.83659C13.1566 7.29614 13.7215 8.30139 13.6258 9.36409C13.4438 11.4608 10.9546 12.4852 9.36538 11.1257C8.18779 10.1204 8.16864 8.31097 9.30793 7.25784C10.1696 6.47278 11.127 6.32917 12.1897 6.83659Z" fill="white"/>
</svg>
