<svg width="48" height="48" viewBox="0 0 48 48" fill="none" xmlns="http://www.w3.org/2000/svg">
<path d="M3.91309 0.661961C2.25327 1.1256 0.87164 2.38668 0.287459 3.98159C0.0185506 4.69559 -0.0834492 6.22559 0.0927323 7.00449C0.42655 8.56231 1.50218 9.89758 3.04146 10.6672C3.74618 11.0196 3.89454 11.1309 3.84818 11.2607C3.69054 11.613 3.69054 12.3827 3.83891 12.8278C4.06145 13.4861 4.54363 13.9312 5.55436 14.3948C6.53727 14.8585 6.73199 14.8863 7.08436 14.6081C7.26981 14.4598 7.32545 14.3392 7.32545 14.0703C7.32545 13.6345 7.2049 13.5232 6.27763 13.0781C5.52654 12.7258 5.19272 12.4105 5.19272 12.0767C5.19272 11.8819 9.56944 4.58432 9.70854 4.53795C9.77344 4.51014 20.1032 9.28558 20.196 9.37831C20.2052 9.38758 19.6118 11.205 18.87 13.4212C18.0076 15.999 17.4513 17.5105 17.3214 17.6496C17.1916 17.7887 17.0154 17.8628 16.83 17.8628C16.6445 17.8628 15.2907 17.2787 13.158 16.2865C11.3034 15.4241 9.66217 14.7101 9.52308 14.7101C8.95745 14.7101 8.60508 15.4705 8.97599 15.897C9.05944 15.999 10.6822 16.8058 12.5645 17.6867C15.7173 19.1517 16.0418 19.2908 16.6167 19.3279C17.9056 19.4114 18.6567 18.8272 19.1389 17.325L19.3058 16.8428H19.992C20.3722 16.8428 22.1896 16.7779 24.0163 16.6945L27.3545 16.5554L28.7918 17.2972C30.0158 17.9278 30.3125 18.0483 30.6834 18.0483C31.1749 18.0483 31.6014 17.8165 31.9352 17.3714C32.1207 17.121 32.13 16.9819 32.1578 14.4134C32.1856 11.8449 32.1763 11.7058 31.9909 11.3256C31.7776 10.8805 31.4716 10.6394 30.9801 10.5281C30.5072 10.4169 30.1456 10.5467 28.6898 11.307L27.4009 11.9839L24.2481 11.8541C22.5142 11.7799 21.0862 11.715 21.0769 11.7058C21.0676 11.6965 21.3829 10.6858 21.7909 9.46176C22.1989 8.23777 22.5327 7.08795 22.5327 6.88395C22.5327 6.2905 22.3287 5.80832 21.8836 5.33541C21.4942 4.91813 21.114 4.72341 16.83 2.73905C12.6016 0.773232 12.1565 0.587778 11.6836 0.578505C10.9789 0.569233 10.3854 0.819595 9.93108 1.31105C9.71781 1.54287 9.5509 1.76541 9.5509 1.81178C9.5509 1.85814 9.07799 1.68196 8.51235 1.41305C7.93745 1.13487 7.26054 0.83814 7.0009 0.754686C6.37036 0.522869 4.59 0.476505 3.91309 0.661961ZM6.42599 2.14559C6.63927 2.21978 7.25127 2.47941 7.77054 2.7205L8.71635 3.16559L8.3269 3.81468C8.1229 4.16704 7.93745 4.47304 7.92817 4.49159C7.9189 4.50086 7.45527 4.30614 6.8989 4.0465C5.814 3.55505 5.27618 3.47159 4.53436 3.68486C3.68127 3.9445 3.06 4.84395 3.06 5.83613C3.06 6.8654 3.52364 7.49595 4.72909 8.08013C5.13709 8.27486 5.47091 8.46031 5.47091 8.4974C5.47091 8.52522 5.28545 8.82195 5.07218 9.16504L4.67345 9.79558L3.91309 9.42467C2.22546 8.61795 1.41873 7.33831 1.50218 5.63213C1.53 4.97377 1.59491 4.71414 1.82673 4.20414C2.29964 3.21196 3.14345 2.47941 4.21909 2.13632C4.72909 1.97869 5.93454 1.97869 6.42599 2.14559ZM16.3014 4.16704C20.6411 6.1885 21.0491 6.41104 21.0491 6.82831C21.0491 6.94886 20.7894 7.83904 20.7245 7.92249C20.706 7.94104 10.5616 3.2305 10.506 3.17486C10.4967 3.16559 10.6173 2.95232 10.7842 2.70196C11.1087 2.20123 11.4425 1.97869 11.73 2.06214C11.832 2.09923 13.8905 3.03577 16.3014 4.16704ZM6.27763 5.40959C6.70418 5.60432 7.04727 5.79904 7.04727 5.84541C7.04727 5.91031 6.46309 6.93959 6.33327 7.09722C6.27763 7.1714 5.07218 6.60577 4.81254 6.38322C4.46018 6.09577 4.44163 5.62286 4.77545 5.29832C5.08145 4.98304 5.38745 5.00159 6.27763 5.40959ZM30.6927 14.3021C30.6927 15.5539 30.6649 16.5647 30.6185 16.5461C30.5814 16.5276 30.0436 16.2494 29.413 15.9248L28.2725 15.3314L28.3003 14.265L28.3281 13.2079L29.4409 12.6145C30.0529 12.2899 30.5814 12.021 30.6278 12.021C30.6649 12.021 30.6927 13.0503 30.6927 14.3021ZM23.8309 13.3192C24.9343 13.3748 26.0471 13.4119 26.316 13.4119H26.7981V14.2372V15.0625L26.1305 15.1181C24.9343 15.2108 19.9271 15.387 19.8807 15.3314C19.8529 15.3036 19.9827 14.8028 20.1774 14.2187L20.5298 13.1523L21.1789 13.1894C21.5405 13.2079 22.7367 13.2728 23.8309 13.3192Z" fill="white"/>
<path d="M33.9847 12.9948C33.4561 13.5141 33.8178 14.1724 34.6894 14.293C34.9676 14.3301 35.5332 14.4599 35.9598 14.5804C36.377 14.701 36.7943 14.803 36.887 14.803C37.3785 14.803 37.7123 14.089 37.4249 13.6439C37.2672 13.4028 36.5996 13.1617 35.3849 12.9113C34.4483 12.7166 34.2443 12.7259 33.9847 12.9948Z" fill="white"/>
<path d="M39.3628 15.1274C38.9733 15.5076 39.0475 15.8693 39.6224 16.37C41.6346 18.1318 42.5526 19.8102 42.9235 22.4436C43.0348 23.2132 43.2017 23.4265 43.6931 23.4265C44.4164 23.4265 44.5648 22.9258 44.2773 21.4143C43.7859 18.8458 42.4042 16.5554 40.4848 15.1553C40.0397 14.8307 39.6595 14.8214 39.3628 15.1274Z" fill="white"/>
<path d="M34.1517 15.9157C33.9198 16.0084 33.7529 16.2773 33.7529 16.5648C33.7529 16.6668 33.9013 17.047 34.0775 17.4086C34.7266 18.6882 35.2366 20.6633 35.2366 21.9337C35.2458 22.6199 35.3757 23.1577 35.5704 23.306C35.83 23.4915 36.3864 23.4544 36.5811 23.2411C36.7202 23.0835 36.748 22.9073 36.7295 22.1469C36.6924 20.1533 36.0804 17.7795 35.218 16.3237C34.9584 15.8786 34.5967 15.7395 34.1517 15.9157Z" fill="white"/>
<path d="M7.46453 25.2255C6.71344 25.55 6.11999 26.4309 6.11999 27.2098C6.11999 27.5622 6.10144 27.6085 5.94381 27.5529C5.23908 27.3304 3.38454 27.3582 2.652 27.5993C2.23472 27.7291 1.79891 28.2298 1.65054 28.7305C1.47436 29.3518 1.50218 31.2434 1.70618 31.9018C2.29036 33.8305 3.69981 35.2863 5.56363 35.8613L6.07363 36.0189V37.5582V39.1067L5.23908 39.3849C3.36599 40.0154 1.78963 41.2302 0.667635 42.9271C0.0278181 43.9007 0 43.9842 0 45.2452C0 46.5249 0.120545 46.8958 0.658363 47.4151C1.24254 47.9714 1.41872 47.9992 3.96872 47.9992C6.17563 47.9992 6.2869 47.99 6.44453 47.8138C6.66708 47.5634 6.66708 47.0441 6.45381 46.8031C6.29617 46.6361 6.14781 46.6176 4.12636 46.5898C1.98436 46.562 1.95654 46.562 1.72472 46.3394C1.50218 46.1262 1.48363 46.052 1.48363 45.2731C1.48363 44.4292 1.48363 44.4292 1.89163 43.8265C2.95799 42.2409 4.27472 41.2487 6.07363 40.6738C7.05653 40.3585 9.11508 40.3029 10.2185 40.5718C12.0545 41.0076 13.5382 41.9905 14.6602 43.5205C15.1423 44.1696 15.6709 44.4292 16.3014 44.3365C16.7651 44.2716 16.7929 44.2438 18.1096 42.7787C19.5376 41.1838 21.4014 40.3956 23.7381 40.3956C26.0749 40.3956 27.9387 41.1838 29.3667 42.7787C30.6834 44.2438 30.7112 44.2716 31.1749 44.3365C31.8054 44.4292 32.3339 44.1696 32.8161 43.5205C33.9381 41.9998 35.4403 41.0076 37.2578 40.5718C38.3612 40.3029 40.4198 40.3585 41.4027 40.6738C43.2016 41.2487 44.5368 42.2502 45.5846 43.8265C45.9834 44.42 45.9926 44.4478 46.0019 45.2545C46.0112 46.0242 46.0019 46.0891 45.7701 46.3209L45.529 46.562L27.1134 46.6083C9.02235 46.6547 8.6978 46.6547 8.56799 46.8309C8.37326 47.0998 8.40108 47.5912 8.62362 47.8138C8.80908 47.9992 8.92962 47.9992 27.3081 47.9992C47.7452 47.9992 46.1503 48.0456 46.8179 47.4151C47.3557 46.8958 47.4763 46.5249 47.4763 45.2452C47.4763 43.9842 47.4485 43.9007 46.8086 42.9271C45.6774 41.2302 44.1103 40.0154 42.2372 39.3849L41.4027 39.1067V37.5674V36.0282L42.1537 35.7778C43.9156 35.1658 45.2045 33.7934 45.7701 31.9018C45.9741 31.2342 46.0019 29.3518 45.8165 28.712C45.5383 27.7569 44.8243 27.4138 43.1088 27.4045C42.3207 27.3953 42.0332 27.4324 41.5232 27.5715C41.3841 27.6085 41.3563 27.5436 41.3563 27.2098C41.3563 26.4216 40.7536 25.5407 39.9932 25.2162C39.8263 25.1513 39.4276 25.0956 39.103 25.0956C38.0459 25.0956 37.2299 25.6798 36.9425 26.6535C36.8683 26.8853 36.8127 27.1913 36.8127 27.3396C36.8127 27.5807 36.7848 27.5993 36.6087 27.5436C36.1914 27.4138 35.2363 27.3582 34.411 27.4231C32.9181 27.5436 32.4545 27.9887 32.2783 29.4538C32.0929 30.956 32.4174 32.3933 33.2149 33.5802C33.9474 34.6929 34.9952 35.4718 36.2563 35.8613L36.7663 36.0189V37.5674V39.116L36.1172 39.32C34.309 39.8949 32.8161 41.0076 31.453 42.8065C31.4345 42.8343 31.3325 42.7231 31.2212 42.5747C30.8225 42.0091 29.719 40.9427 29.0792 40.5069C28.2354 39.9227 27.7532 39.6816 26.8445 39.3663L26.1027 39.116L26.0749 37.5396L26.0563 35.9633L26.3994 35.8983C26.928 35.8056 27.985 35.2585 28.5414 34.8042C29.4965 34.016 30.1919 32.8662 30.4701 31.6051C30.637 30.8447 30.6092 29.2313 30.4238 28.6007C30.2754 28.1185 29.8396 27.7198 29.274 27.5529C28.7361 27.3953 26.9743 27.3582 26.4087 27.4973L26.0656 27.5807L26.0007 27.1449C25.8152 25.8467 24.99 25.0956 23.7381 25.0956C22.4863 25.0956 21.6611 25.8467 21.4756 27.1449L21.4107 27.5807L21.0676 27.4973C20.502 27.3582 18.7402 27.3953 18.2023 27.5529C17.6182 27.7291 17.2009 28.1185 17.0432 28.6471C16.9691 28.8696 16.9227 29.5373 16.9227 30.242C16.9227 31.2342 16.9598 31.568 17.1267 32.0965C17.6831 33.8584 19.0832 35.2863 20.7431 35.7871L21.42 35.9911L21.4014 37.5582L21.3736 39.116L20.6318 39.3663C19.7231 39.6816 19.2409 39.9227 18.3971 40.5069C17.7572 40.9427 16.6538 42.0091 16.2551 42.5747C16.1438 42.7231 16.0418 42.8343 16.0232 42.8065C14.6602 41.0076 13.1672 39.8949 11.3591 39.32L10.71 39.116V37.5674V36.0189L11.22 35.8613C12.4811 35.4718 13.5289 34.6929 14.2614 33.5802C15.0589 32.4025 15.3834 30.956 15.2072 29.4816C15.1516 29.0644 15.0867 28.6378 15.0496 28.5544C14.9198 28.202 14.6231 27.8682 14.2614 27.6827C13.6587 27.3767 11.6651 27.2933 10.8769 27.5436C10.6822 27.6085 10.6636 27.5807 10.6636 27.2933C10.6636 26.4958 10.1629 25.6891 9.43035 25.3275C8.89253 25.0585 7.95599 25.0122 7.46453 25.2255ZM8.88326 26.7647C9.13362 26.9965 9.19853 27.2562 9.16144 27.8218C9.13362 28.2298 9.09653 28.2947 8.74417 28.5451L8.35471 28.8325L7.9838 28.5265C7.6129 28.2391 7.60362 28.2205 7.60362 27.6364C7.60362 27.1171 7.64071 27.0058 7.83544 26.8111C8.11362 26.5236 8.5958 26.5051 8.88326 26.7647ZM24.2852 26.8018C24.4429 26.978 24.5078 27.1727 24.5449 27.6178L24.5912 28.202L24.1647 28.508L23.7381 28.814L23.3116 28.508L22.8851 28.202L22.9314 27.6178C22.9685 27.1727 23.0334 26.978 23.1911 26.8018C23.4785 26.4958 23.9978 26.4958 24.2852 26.8018ZM39.6408 26.8111C39.8356 27.0058 39.8727 27.1171 39.8727 27.6364C39.8727 28.2205 39.8634 28.2391 39.4925 28.5265L39.1216 28.8325L38.7321 28.5451C38.3798 28.2947 38.3427 28.2298 38.3148 27.8218C38.2963 27.5807 38.3056 27.284 38.3334 27.1635C38.4818 26.5885 39.2236 26.3845 39.6408 26.8111ZM5.65635 29.0551C6.3889 29.2591 6.83399 29.5094 7.39962 30.038C8.32689 30.9189 8.73489 31.8925 8.73489 33.2556C8.74417 34.4333 8.6978 34.526 7.90962 34.6094C5.0629 34.9062 2.79109 32.7178 3.00436 29.8804C3.03218 29.4724 3.09709 29.1014 3.14345 29.0551C3.39381 28.8047 4.74763 28.8047 5.65635 29.0551ZM13.3713 28.9531C13.5752 28.9994 13.6309 29.0644 13.6772 29.3425C13.7051 29.528 13.7514 29.8062 13.77 29.9453C13.8534 30.4553 13.6309 31.5309 13.3063 32.2171C12.7778 33.3391 11.5538 34.322 10.4689 34.5074L10.1351 34.5724L10.2185 33.9789C10.3576 32.8754 10.1258 31.5309 9.63435 30.548L9.35617 30.0009L9.56944 29.8154C9.96816 29.4816 11.0809 28.9902 11.6373 28.9067C12.1565 28.8233 12.7963 28.8418 13.3713 28.9531ZM21.1881 29.1014C22.6254 29.5651 23.6825 30.7427 24.0163 32.2449C24.1461 32.8291 24.109 34.3127 23.9514 34.4704C23.9051 34.5167 23.5063 34.5816 23.0798 34.6187C20.8636 34.7671 18.8978 33.3298 18.4434 31.2156C18.3136 30.6314 18.3692 29.222 18.5269 29.0644C18.8143 28.7769 20.2701 28.8047 21.1881 29.1014ZM28.8474 28.9994C29.0329 29.0922 29.1163 29.4816 29.1163 30.2791C29.107 31.4753 28.6805 32.5324 27.883 33.3391C27.4009 33.8213 26.3809 34.4054 25.8245 34.5167L25.5463 34.5724L25.5741 33.5153C25.6112 32.3098 25.4629 31.5124 25.0363 30.6129C24.8787 30.2884 24.7581 30.0102 24.7581 29.9824C24.7581 29.8711 25.5834 29.3611 26.0563 29.1756C26.316 29.0736 26.7518 28.9531 27.0114 28.9067C27.5307 28.814 28.6063 28.8696 28.8474 28.9994ZM36.3027 29.0087C37.8419 29.3982 39.0752 30.7427 39.409 32.3747C39.5481 33.0238 39.4647 34.2571 39.2885 34.4425C39.2143 34.5074 38.8619 34.5909 38.5003 34.6187C36.1265 34.8134 34.0865 33.2093 33.7619 30.8911C33.6785 30.2976 33.7527 29.1478 33.8825 29.018C33.901 28.9902 34.1514 28.9345 34.4203 28.8974C34.9581 28.814 35.7278 28.8604 36.3027 29.0087ZM44.203 28.9994C44.3699 29.0644 44.407 29.1756 44.4719 29.7042C44.6203 31.1044 44.101 32.5694 43.1367 33.4504C42.6081 33.9325 41.755 34.4054 41.1987 34.5167L40.8927 34.5724L40.9483 33.71C41.0225 32.6344 40.837 31.5402 40.429 30.6778C40.2807 30.3533 40.1508 30.0473 40.1508 30.0009C40.1508 29.8525 40.8927 29.3704 41.4212 29.1756C42.3485 28.8325 43.5539 28.7491 44.203 28.9994ZM9.02235 36.1302C9.16144 36.1302 9.17998 36.26 9.17998 37.5211V38.912H8.3918H7.60362V37.5303V36.1394L7.90962 36.1023C8.06726 36.0745 8.35471 36.0745 8.53089 36.0931C8.70708 36.1116 8.92962 36.1302 9.02235 36.1302ZM24.1461 36.0931L24.5727 36.158V37.5303V38.912H23.7381H22.9036V37.5303V36.1394L23.2096 36.1023C23.3672 36.0838 23.5527 36.056 23.6083 36.056C23.664 36.0467 23.9051 36.0653 24.1461 36.0931ZM39.715 36.1302C39.8541 36.1302 39.8727 36.26 39.8727 37.5211V38.912H39.0845H38.2963V37.5303V36.1394L38.6023 36.1023C38.7599 36.0745 39.0474 36.0745 39.2236 36.0931C39.3997 36.1116 39.6223 36.1302 39.715 36.1302Z" fill="white"/>
</svg>
