<svg width="20" height="16" viewBox="0 0 20 16" fill="none" xmlns="http://www.w3.org/2000/svg">
<path d="M19.8008 4.00003C19.8008 4.00003 19.6055 2.62112 19.0039 2.01566C18.2422 1.21878 17.3906 1.21487 17 1.168C14.2031 0.964874 10.0039 0.964874 10.0039 0.964874H9.99609C9.99609 0.964874 5.79687 0.964874 3 1.168C2.60938 1.21487 1.75781 1.21878 0.996094 2.01566C0.394531 2.62112 0.203125 4.00003 0.203125 4.00003C0.203125 4.00003 0 5.62112 0 7.23831V8.75394C0 10.3711 0.199219 11.9922 0.199219 11.9922C0.199219 11.9922 0.394531 13.3711 0.992187 13.9766C1.75391 14.7735 2.75391 14.7461 3.19922 14.8321C4.80078 14.9844 10 15.0313 10 15.0313C10 15.0313 14.2031 15.0235 17 14.8243C17.3906 14.7774 18.2422 14.7735 19.0039 13.9766C19.6055 13.3711 19.8008 11.9922 19.8008 11.9922C19.8008 11.9922 20 10.375 20 8.75394V7.23831C20 5.62112 19.8008 4.00003 19.8008 4.00003ZM7.93359 10.5938V4.97269L13.3359 7.793L7.93359 10.5938Z" fill="white"/>
</svg>
