<svg width="29" height="31" viewBox="0 0 29 31" fill="none" xmlns="http://www.w3.org/2000/svg">
<g filter="url(#filter0_d_269_62)">
<mask id="mask0_269_62" style="mask-type:luminance" maskUnits="userSpaceOnUse" x="4" y="2" width="20" height="20">
<path fill-rule="evenodd" clip-rule="evenodd" d="M4 2H23.4768V21.477H4V2Z" fill="white"/>
</mask>
<g mask="url(#mask0_269_62)">
<path fill-rule="evenodd" clip-rule="evenodd" d="M13.739 3.5C9.196 3.5 5.5 7.195 5.5 11.738C5.5 16.281 9.196 19.977 13.739 19.977C18.281 19.977 21.977 16.281 21.977 11.738C21.977 7.195 18.281 3.5 13.739 3.5ZM13.739 21.477C8.369 21.477 4 17.108 4 11.738C4 6.368 8.369 2 13.739 2C19.109 2 23.477 6.368 23.477 11.738C23.477 17.108 19.109 21.477 13.739 21.477Z" fill="#09270D"/>
</g>
<mask id="mask1_269_62" style="mask-type:luminance" maskUnits="userSpaceOnUse" x="19" y="17" width="6" height="6">
<path fill-rule="evenodd" clip-rule="evenodd" d="M19.2397 17.707H24.2638V22.7218H19.2397V17.707Z" fill="white"/>
</mask>
<g mask="url(#mask1_269_62)">
<path fill-rule="evenodd" clip-rule="evenodd" d="M23.514 22.7218C23.323 22.7218 23.131 22.6488 22.984 22.5028L19.46 18.9888C19.167 18.6958 19.166 18.2208 19.459 17.9278C19.751 17.6328 20.226 17.6348 20.52 17.9258L24.044 21.4408C24.337 21.7338 24.338 22.2078 24.045 22.5008C23.899 22.6488 23.706 22.7218 23.514 22.7218Z" fill="#09270D"/>
</g>
</g>
<defs>
<filter id="filter0_d_269_62" x="-2" y="0" width="32" height="32" filterUnits="userSpaceOnUse" color-interpolation-filters="sRGB">
<feFlood flood-opacity="0" result="BackgroundImageFix"/>
<feColorMatrix in="SourceAlpha" type="matrix" values="0 0 0 0 0 0 0 0 0 0 0 0 0 0 0 0 0 0 127 0" result="hardAlpha"/>
<feOffset dy="4"/>
<feGaussianBlur stdDeviation="2"/>
<feComposite in2="hardAlpha" operator="out"/>
<feColorMatrix type="matrix" values="0 0 0 0 0 0 0 0 0 0 0 0 0 0 0 0 0 0 0.25 0"/>
<feBlend mode="normal" in2="BackgroundImageFix" result="effect1_dropShadow_269_62"/>
<feBlend mode="normal" in="SourceGraphic" in2="effect1_dropShadow_269_62" result="shape"/>
</filter>
</defs>
</svg>
