<svg width="41" height="41" viewBox="0 0 41 41" fill="none" xmlns="http://www.w3.org/2000/svg">
<path d="M28.1213 18.6386C28.0283 18.5431 27.6772 18.1349 27.3501 17.7992C25.4325 15.6876 20.4301 12.2313 17.8118 11.1764C17.4142 11.0068 16.4089 10.648 15.8718 10.625C15.3571 10.625 14.8665 10.7435 14.3983 10.9838C13.8147 11.3195 13.3465 11.8479 13.09 12.4716C12.9248 12.9045 12.6683 14.1998 12.6683 14.2228C12.4118 15.6399 12.2707 17.9424 12.2707 20.4868C12.2707 22.9111 12.4118 25.1199 12.6218 26.5583C12.6459 26.5814 12.9024 28.191 13.183 28.7423C13.6976 29.7496 14.7029 30.375 15.7788 30.375H15.8718C16.5724 30.3503 18.0459 29.7249 18.0459 29.7019C20.5231 28.6452 25.4101 25.3585 27.3742 23.1745C27.3742 23.1745 27.9273 22.6133 28.1678 22.2627C28.543 21.7591 28.729 21.1353 28.729 20.5115C28.729 19.8153 28.519 19.1669 28.1213 18.6386" fill="#3E8847"/>
</svg>
